<svg xmlns="http://www.w3.org/2000/svg" width="241.896" height="162.45" viewBox="0 0 241.896 162.45">
  <g id="footer_logo" transform="translate(-826 -4958.051)">
    <path id="Path_38" data-name="Path 38" d="M1789.588,5827.711l95.087-79.7,97.472,79.7" transform="translate(-938.588 -789.956)" fill="#08376c"/>
    <g id="Livello_1" data-name="Livello 1" transform="translate(826 4980)">
      <path id="Path_1" data-name="Path 1" d="M0,160.109l3.065-3.647a13.437,13.437,0,0,0,9.164,3.774c3.148,0,5.141-1.494,5.141-3.647v-.083c0-2.076-1.162-3.193-6.552-4.439-6.176-1.494-9.656-3.315-9.656-8.666v-.083c0-4.975,4.145-8.411,9.905-8.411A16.087,16.087,0,0,1,21.6,138.555l-2.74,3.832a13.369,13.369,0,0,0-7.874-2.989c-2.982,0-4.726,1.533-4.726,3.442v.083c0,2.242,1.328,3.232,6.923,4.56,6.137,1.533,9.286,3.717,9.286,8.558v.083c0,5.428-4.266,8.66-10.365,8.66A17.882,17.882,0,0,1,0,160.109Z" transform="translate(0 -50.102)" fill="#fff"/>
      <path id="Path_2" data-name="Path 2" d="M47.12,152.267V135.56h5.109v16.5c0,5.39,2.778,8.251,7.338,8.251s7.274-2.7,7.274-8.04V135.56H71.95v16.458c0,8.66-4.886,13.015-12.473,13.015S47.12,160.678,47.12,152.267Z" transform="translate(-17.028 -50.339)" fill="#fff"/>
      <path id="Path_3" data-name="Path 3" d="M100.67,135.56h5.109v29.02H100.67Z" transform="translate(-36.379 -50.339)" fill="#fff"/>
      <path id="Path_4" data-name="Path 4" d="M129.993,140.326h-9.2V135.6h23.546v4.726h-9.2v24.268h-5.141Z" transform="translate(-43.649 -50.353)" fill="#fff"/>
      <path id="Path_5" data-name="Path 5" d="M169.333,135.56h21.5v4.56h-16.4v7.542h14.555v4.56H174.429v7.791h16.6v4.566H169.32Z" transform="translate(-61.186 -50.339)" fill="#fff"/>
      <path id="Path_6" data-name="Path 6" d="M222.033,140.326h-9.2V135.6h23.546v4.726h-9.2v24.268h-5.109Z" transform="translate(-76.909 -50.353)" fill="#fff"/>
      <path id="Path_7" data-name="Path 7" d="M261.83,135.56h5.109v29.02H261.83Z" transform="translate(-94.616 -50.339)" fill="#fff"/>
      <path id="Path_8" data-name="Path 8" d="M285.2,135.546h5.428l8.832,13.692,8.826-13.718h5.435v29.045h-5.109V143.752l-9.158,13.68h-.166l-9.081-13.6v20.73H285.2Z" transform="translate(-103.061 -50.324)" fill="#fff"/>
      <path id="Path_9" data-name="Path 9" d="M344.776,135.56h21.516v4.56H349.879v7.542h14.548v4.56H349.879v7.791h16.6v4.566H344.77Z" transform="translate(-124.588 -50.339)" fill="#fff"/>
      <rect id="Rectangle_2" data-name="Rectangle 2" width="49.347" height="49.347" transform="translate(118.755 0) rotate(45)" fill="none" stroke="#bea473" stroke-miterlimit="10" stroke-width="3"/>
      <rect id="Rectangle_3" data-name="Rectangle 3" width="49.347" height="49.347" transform="translate(125.883 0.001) rotate(45)" fill="none" stroke="#bea473" stroke-miterlimit="10" stroke-width="3"/>
      <path id="Path_10" data-name="Path 10" d="M74.308,205.341a4.822,4.822,0,0,1,1.737,2.555h-1.1a3.7,3.7,0,0,0-1.379-1.839,4.106,4.106,0,0,0-2.395-.639,3.653,3.653,0,0,0-3.359,2.069,5.562,5.562,0,0,0,0,4.63,3.742,3.742,0,0,0,1.386,1.526,3.832,3.832,0,0,0,1.973.53,4.151,4.151,0,0,0,2.395-.639,3.7,3.7,0,0,0,1.379-1.8h1.1a4.777,4.777,0,0,1-1.737,2.516,5.109,5.109,0,0,1-3.1.869,4.9,4.9,0,0,1-2.555-.683,4.688,4.688,0,0,1-1.75-1.916,6.437,6.437,0,0,1,0-5.537,4.573,4.573,0,0,1,1.75-1.916,4.9,4.9,0,0,1,2.555-.677,5.109,5.109,0,0,1,3.1.952Z" transform="translate(-23.951 -75.211)" fill="#bea473" stroke="#bea473" stroke-miterlimit="10" stroke-width="1"/>
      <path id="Path_11" data-name="Path 11" d="M103.385,205.113a4.8,4.8,0,0,1,1.82,1.916,5.69,5.69,0,0,1,.639,2.765,5.748,5.748,0,0,1-.639,2.772,4.809,4.809,0,0,1-1.82,1.916,5.358,5.358,0,0,1-5.237,0,4.809,4.809,0,0,1-1.82-1.916,5.747,5.747,0,0,1-.639-2.772,5.69,5.69,0,0,1,.639-2.765,4.8,4.8,0,0,1,1.82-1.916A5.358,5.358,0,0,1,103.385,205.113Zm-4.675.817a3.762,3.762,0,0,0-1.443,1.533,5.333,5.333,0,0,0,0,4.636,3.762,3.762,0,0,0,1.443,1.533,4.253,4.253,0,0,0,4.113,0,3.762,3.762,0,0,0,1.443-1.533,5.333,5.333,0,0,0,0-4.636,3.761,3.761,0,0,0-1.443-1.533A4.209,4.209,0,0,0,98.71,205.931Z" transform="translate(-34.578 -75.226)" fill="#bea473" stroke="#bea473" stroke-miterlimit="10" stroke-width="1"/>
      <path id="Path_12" data-name="Path 12" d="M127.308,214.26h3.832v.817h-4.86V204.61h1.054Z" transform="translate(-45.633 -75.291)" fill="#bea473" stroke="#bea473" stroke-miterlimit="10" stroke-width="1"/>
      <path id="Path_13" data-name="Path 13" d="M148.8,214.26h3.832v.817h-4.86V204.61h1.054Z" transform="translate(-53.399 -75.291)" fill="#bea473" stroke="#bea473" stroke-miterlimit="10" stroke-width="1"/>
      <path id="Path_14" data-name="Path 14" d="M170.278,205.459v3.953h4.094v.817h-4.094v4h4.56v.849H169.25V204.61h5.588v.849Z" transform="translate(-61.161 -75.291)" fill="#bea473" stroke="#bea473" stroke-miterlimit="10" stroke-width="1"/>
      <path id="Path_15" data-name="Path 15" d="M199.993,205.388a4.892,4.892,0,0,1,1.737,2.555h-1.1a3.711,3.711,0,0,0-1.386-1.8,4.106,4.106,0,0,0-2.395-.639,3.672,3.672,0,0,0-3.359,2.069,5.563,5.563,0,0,0,0,4.63,3.659,3.659,0,0,0,3.359,2.056,4.151,4.151,0,0,0,2.395-.639,3.711,3.711,0,0,0,1.386-1.8h1.1a4.847,4.847,0,0,1-1.737,2.516,5.109,5.109,0,0,1-3.123.92,4.892,4.892,0,0,1-2.555-.683,4.751,4.751,0,0,1-1.756-1.916,6.5,6.5,0,0,1,0-5.537,4.63,4.63,0,0,1,1.756-1.916,4.886,4.886,0,0,1,2.555-.677A5.109,5.109,0,0,1,199.993,205.388Z" transform="translate(-69.36 -75.258)" fill="#bea473" stroke="#bea473" stroke-miterlimit="10" stroke-width="1"/>
      <path id="Path_16" data-name="Path 16" d="M227.539,204.61v.849h-2.989v9.618H223.51v-9.618h-2.97v-.849Z" transform="translate(-79.695 -75.291)" fill="#bea473" stroke="#bea473" stroke-miterlimit="10" stroke-width="1"/>
      <path id="Path_17" data-name="Path 17" d="M246.4,204.61v10.467H245.35V204.61Z" transform="translate(-88.661 -75.291)" fill="#bea473" stroke="#bea473" stroke-miterlimit="10" stroke-width="1"/>
      <path id="Path_18" data-name="Path 18" d="M269.348,205.113a4.8,4.8,0,0,1,1.82,1.916,6.32,6.32,0,0,1,0,5.537,4.809,4.809,0,0,1-1.82,1.916,5.345,5.345,0,0,1-5.23,0,4.809,4.809,0,0,1-1.82-1.916,6.32,6.32,0,0,1,0-5.537,4.8,4.8,0,0,1,1.82-1.916A5.345,5.345,0,0,1,269.348,205.113Zm-4.675.817a3.832,3.832,0,0,0-1.443,1.533,5.39,5.39,0,0,0,0,4.636,3.832,3.832,0,0,0,1.443,1.533,4.266,4.266,0,0,0,4.119,0,3.831,3.831,0,0,0,1.443-1.533,5.39,5.39,0,0,0,0-4.637,3.832,3.832,0,0,0-1.443-1.533,4.221,4.221,0,0,0-4.119,0Z" transform="translate(-94.554 -75.226)" fill="#bea473" stroke="#bea473" stroke-miterlimit="10" stroke-width="1"/>
      <path id="Path_19" data-name="Path 19" d="M300.055,215.088H299l-5.748-8.756v8.756H292.2V204.64h1.054L299,213.408V204.64h1.054Z" transform="translate(-105.591 -75.302)" fill="#bea473" stroke="#bea473" stroke-miterlimit="10" stroke-width="1"/>
      <path id="Path_20" data-name="Path 20" d="M177.707,37.459a4.107,4.107,0,0,1,1.277.862,4.011,4.011,0,0,1,.856,1.277,3.781,3.781,0,0,1,.326,1.552v2.861h-2.4V41.144a1.59,1.59,0,0,0-1.609-1.609h-.639a1.584,1.584,0,0,0-1.609,1.609v4.8a1.494,1.494,0,0,0,.664,1.322l3.9,2.8a3.94,3.94,0,0,1,1.718,3.257v4.834a3.832,3.832,0,0,1-.319,1.558,4.081,4.081,0,0,1-2.133,2.133,3.889,3.889,0,0,1-1.558.319h-.639a3.908,3.908,0,0,1-1.558-.319,4.3,4.3,0,0,1-1.277-.862,4.119,4.119,0,0,1-.856-1.277,3.832,3.832,0,0,1-.326-1.558V55.3h2.4v2.861a1.584,1.584,0,0,0,1.609,1.609h.639a1.584,1.584,0,0,0,1.616-1.609v-4.8a1.52,1.52,0,0,0-.683-1.328l-3.9-2.791a4,4,0,0,1-1.277-1.431,3.9,3.9,0,0,1-.447-1.826V41.144a3.877,3.877,0,0,1,.332-1.539,4.138,4.138,0,0,1,.862-1.277,4.03,4.03,0,0,1,1.277-.862,3.787,3.787,0,0,1,1.558-.326h.639a3.832,3.832,0,0,1,1.558.319Z" transform="translate(-61.967 -14.773)" fill="#fff"/>
      <path id="Path_21" data-name="Path 21" d="M205.494,37.13v2.4h-4.151V62.2h-2.4V39.531H194.79v-2.4Z" transform="translate(-70.39 -14.77)" fill="#fff"/>
    </g>
  </g>
</svg>
