<svg xmlns="http://www.w3.org/2000/svg" width="60.382" height="54.919" viewBox="0 0 60.382 54.919">
  <g id="hearth" transform="translate(-5.999 -9.999)">
    <path id="Path_48" data-name="Path 48" d="M31.044,61.2l3.3,3.005a2.745,2.745,0,0,0,3.691,0l3.431-3.129c13.38-12.083,24.914-22.5,24.914-33.237A17.647,17.647,0,0,0,48.54,10c-6.45,0-9.791,3.431-12.35,6.6-2.559-3.17-5.9-6.6-12.35-6.6A17.647,17.647,0,0,0,6,27.839C6,38.618,17.609,49.109,31.044,61.2Zm-7.2-45.711c4.487,0,6.415,2.436,8.851,5.53.467.59.933,1.18,1.413,1.736a2.82,2.82,0,0,0,4.172,0c.48-.556.947-1.146,1.413-1.736,2.436-3.094,4.364-5.53,8.851-5.53a12.22,12.22,0,0,1,12.35,12.35c0,8.3-11.2,18.423-23.075,29.133L36.19,58.448l-1.468-1.324C22.776,46.365,11.489,36.176,11.489,27.839a12.22,12.22,0,0,1,12.35-12.35Z" fill="#c4ab85"/>
  </g>
</svg>
