<svg xmlns="http://www.w3.org/2000/svg" width="219.433" height="129.622" viewBox="0 0 219.433 129.622">
  <g id="logo" transform="translate(0 2.121)">
    <path id="Path_1" data-name="Path 1" d="M0,157.768l2.781-3.308a12.189,12.189,0,0,0,8.313,3.424c2.856,0,4.664-1.356,4.664-3.308V154.5c0-1.883-1.054-2.9-5.944-4.026-5.6-1.356-8.759-3.007-8.759-7.861v-.075c0-4.513,3.76-7.63,8.985-7.63a14.593,14.593,0,0,1,9.553,3.308l-2.485,3.476a12.127,12.127,0,0,0-7.143-2.711c-2.705,0-4.287,1.39-4.287,3.123v.075c0,2.033,1.205,2.931,6.28,4.136,5.567,1.39,8.423,3.372,8.423,7.763v.075c0,4.924-3.87,7.856-9.4,7.856A16.221,16.221,0,0,1,0,157.768Z" transform="translate(0 -57.977)" fill="#033864"/>
    <path id="Path_2" data-name="Path 2" d="M47.12,150.715V135.56h4.635v14.964c0,4.89,2.52,7.485,6.657,7.485s6.6-2.445,6.6-7.294V135.56h4.635v14.929c0,7.856-4.432,11.807-11.314,11.807S47.12,158.345,47.12,150.715Z" transform="translate(-19.822 -58.253)" fill="#033864"/>
    <path id="Path_3" data-name="Path 3" d="M100.67,135.56H105.3v26.325H100.67Z" transform="translate(-42.349 -58.253)" fill="#033864"/>
    <path id="Path_4" data-name="Path 4" d="M129.138,139.887H120.79V135.6h21.36v4.287H133.8V161.9h-4.664Z" transform="translate(-50.813 -58.269)" fill="#033864"/>
    <path id="Path_5" data-name="Path 5" d="M169.332,135.56h19.5V139.7H173.955v6.842h13.2v4.136h-13.2v7.068h15.063v4.142h-19.7Z" transform="translate(-71.228 -58.253)" fill="#033864"/>
    <path id="Path_6" data-name="Path 6" d="M221.178,139.887H212.83V135.6h21.36v4.287h-8.348V161.9h-4.635Z" transform="translate(-89.531 -58.269)" fill="#033864"/>
    <path id="Path_7" data-name="Path 7" d="M261.83,135.56h4.635v26.325H261.83Z" transform="translate(-110.144 -58.253)" fill="#033864"/>
    <path id="Path_8" data-name="Path 8" d="M285.2,135.543h4.924l8.012,12.421,8.006-12.444h4.93v26.348h-4.635v-18.88L298.131,155.4h-.151l-8.238-12.334v18.805H285.2Z" transform="translate(-119.975 -58.236)" fill="#033864"/>
    <path id="Path_9" data-name="Path 9" d="M344.776,135.56h19.518V139.7H349.4v6.842h13.2v4.136H349.4v7.068h15.063v4.142h-19.7Z" transform="translate(-145.034 -58.253)" fill="#033864"/>
    <rect id="Rectangle_2" data-name="Rectangle 2" width="44.765" height="44.765" transform="translate(107.727 0) rotate(45)" fill="none" stroke="#bea473" stroke-miterlimit="10" stroke-width="3"/>
    <rect id="Rectangle_3" data-name="Rectangle 3" width="44.765" height="44.765" transform="translate(114.194 0.001) rotate(45)" fill="none" stroke="#bea473" stroke-miterlimit="10" stroke-width="3"/>
    <path id="Path_10" data-name="Path 10" d="M73.562,205.252a4.374,4.374,0,0,1,1.576,2.317h-1A3.354,3.354,0,0,0,72.89,205.9a3.725,3.725,0,0,0-2.172-.579A3.314,3.314,0,0,0,67.67,207.2a5.046,5.046,0,0,0,0,4.2,3.4,3.4,0,0,0,1.257,1.385,3.476,3.476,0,0,0,1.79.481,3.766,3.766,0,0,0,2.172-.579,3.354,3.354,0,0,0,1.251-1.634h1a4.333,4.333,0,0,1-1.576,2.283,4.635,4.635,0,0,1-2.81.788,4.449,4.449,0,0,1-2.317-.62,4.252,4.252,0,0,1-1.587-1.738,5.84,5.84,0,0,1,0-5.023A4.148,4.148,0,0,1,68.435,205a4.449,4.449,0,0,1,2.317-.614A4.635,4.635,0,0,1,73.562,205.252Z" transform="translate(-27.882 -87.206)" fill="#bea473" stroke="#bea473" stroke-miterlimit="10" stroke-width="1"/>
    <path id="Path_11" data-name="Path 11" d="M102.67,205.05a4.351,4.351,0,0,1,1.651,1.738,5.162,5.162,0,0,1,.579,2.508,5.214,5.214,0,0,1-.579,2.514,4.363,4.363,0,0,1-1.651,1.738,4.861,4.861,0,0,1-4.751,0,4.363,4.363,0,0,1-1.651-1.738,5.214,5.214,0,0,1-.579-2.514,5.162,5.162,0,0,1,.579-2.509,4.351,4.351,0,0,1,1.651-1.738A4.861,4.861,0,0,1,102.67,205.05Zm-4.241.742a3.412,3.412,0,0,0-1.309,1.39,4.837,4.837,0,0,0,0,4.206,3.412,3.412,0,0,0,1.309,1.39,3.858,3.858,0,0,0,3.731,0,3.412,3.412,0,0,0,1.309-1.39,4.837,4.837,0,0,0,0-4.206,3.412,3.412,0,0,0-1.309-1.39A3.818,3.818,0,0,0,98.429,205.791Z" transform="translate(-40.253 -87.224)" fill="#bea473" stroke="#bea473" stroke-miterlimit="10" stroke-width="1"/>
    <path id="Path_12" data-name="Path 12" d="M127.213,213.364h3.476v.742H126.28v-9.5h.956Z" transform="translate(-53.122 -87.3)" fill="#bea473" stroke="#bea473" stroke-miterlimit="10" stroke-width="1"/>
    <path id="Path_13" data-name="Path 13" d="M148.7,213.364h3.476v.742H147.77v-9.5h.956Z" transform="translate(-62.162 -87.3)" fill="#bea473" stroke="#bea473" stroke-miterlimit="10" stroke-width="1"/>
    <path id="Path_14" data-name="Path 14" d="M170.183,205.38v3.586H173.9v.742h-3.714v3.627h4.136v.771H169.25v-9.5h5.069v.77Z" transform="translate(-71.198 -87.3)" fill="#bea473" stroke="#bea473" stroke-miterlimit="10" stroke-width="1"/>
    <path id="Path_15" data-name="Path 15" d="M199.245,205.307a4.437,4.437,0,0,1,1.576,2.317h-1a3.366,3.366,0,0,0-1.257-1.634,3.725,3.725,0,0,0-2.172-.579,3.331,3.331,0,0,0-3.047,1.877,5.046,5.046,0,0,0,0,4.2,3.319,3.319,0,0,0,3.047,1.865,3.766,3.766,0,0,0,2.173-.579,3.366,3.366,0,0,0,1.257-1.634h1a4.4,4.4,0,0,1-1.576,2.283,4.635,4.635,0,0,1-2.833.834,4.438,4.438,0,0,1-2.317-.62A4.31,4.31,0,0,1,192.5,211.9a5.892,5.892,0,0,1,0-5.023,4.2,4.2,0,0,1,1.593-1.738,4.432,4.432,0,0,1,2.317-.614A4.635,4.635,0,0,1,199.245,205.307Z" transform="translate(-80.743 -87.261)" fill="#bea473" stroke="#bea473" stroke-miterlimit="10" stroke-width="1"/>
    <path id="Path_16" data-name="Path 16" d="M226.889,204.61v.77h-2.711v8.725h-.944V205.38H220.54v-.77Z" transform="translate(-92.774 -87.3)" fill="#bea473" stroke="#bea473" stroke-miterlimit="10" stroke-width="1"/>
    <path id="Path_17" data-name="Path 17" d="M246.306,204.61v9.5h-.956v-9.5Z" transform="translate(-103.211 -87.3)" fill="#bea473" stroke="#bea473" stroke-miterlimit="10" stroke-width="1"/>
    <path id="Path_18" data-name="Path 18" d="M268.634,205.05a4.351,4.351,0,0,1,1.651,1.738,5.733,5.733,0,0,1,0,5.023,4.362,4.362,0,0,1-1.651,1.738,4.849,4.849,0,0,1-4.745,0,4.362,4.362,0,0,1-1.651-1.738,5.733,5.733,0,0,1,0-5.023,4.35,4.35,0,0,1,1.651-1.738A4.849,4.849,0,0,1,268.634,205.05Zm-4.241.742a3.476,3.476,0,0,0-1.309,1.39,4.889,4.889,0,0,0,0,4.206,3.476,3.476,0,0,0,1.309,1.39,3.87,3.87,0,0,0,3.737,0,3.476,3.476,0,0,0,1.309-1.39,4.89,4.89,0,0,0,0-4.206,3.476,3.476,0,0,0-1.309-1.39,3.829,3.829,0,0,0-3.737,0Z" transform="translate(-110.071 -87.224)" fill="#bea473" stroke="#bea473" stroke-miterlimit="10" stroke-width="1"/>
    <path id="Path_19" data-name="Path 19" d="M299.326,214.118h-.956l-5.214-7.943v7.943H292.2V204.64h.956l5.214,7.954V204.64h.956Z" transform="translate(-122.92 -87.312)" fill="#bea473" stroke="#bea473" stroke-miterlimit="10" stroke-width="1"/>
    <path id="Path_20" data-name="Path 20" d="M177.128,37.43a3.725,3.725,0,0,1,1.159.782,3.639,3.639,0,0,1,.776,1.159,3.43,3.43,0,0,1,.3,1.408v2.6h-2.178v-2.6a1.443,1.443,0,0,0-1.46-1.46h-.579a1.437,1.437,0,0,0-1.46,1.46v4.357a1.356,1.356,0,0,0,.6,1.2l3.54,2.537a3.574,3.574,0,0,1,1.558,2.955v4.386a3.476,3.476,0,0,1-.29,1.414,3.7,3.7,0,0,1-1.935,1.935,3.528,3.528,0,0,1-1.414.29h-.579a3.546,3.546,0,0,1-1.414-.29,3.9,3.9,0,0,1-1.159-.782,3.737,3.737,0,0,1-.776-1.159,3.476,3.476,0,0,1-.3-1.414V53.61H173.7v2.6a1.437,1.437,0,0,0,1.46,1.46h.579a1.437,1.437,0,0,0,1.466-1.46V51.855a1.379,1.379,0,0,0-.62-1.205l-3.54-2.532a3.633,3.633,0,0,1-1.159-1.3,3.54,3.54,0,0,1-.405-1.657V40.772a3.516,3.516,0,0,1,.3-1.4,3.754,3.754,0,0,1,.782-1.159,3.656,3.656,0,0,1,1.159-.782,3.436,3.436,0,0,1,1.414-.3h.579A3.476,3.476,0,0,1,177.128,37.43Z" transform="translate(-72.136 -16.85)" fill="#033864"/>
    <path id="Path_21" data-name="Path 21" d="M204.5,37.13v2.178h-3.766V59.875h-2.178V39.308H194.79V37.13Z" transform="translate(-81.942 -16.846)" fill="#033864"/>
  </g>
</svg>
