<svg xmlns="http://www.w3.org/2000/svg" width="890.032" height="441.294" viewBox="0 0 890.032 441.294">
  <g id="map" transform="translate(-269.451 -4305.508)">
    <g id="Group_38" data-name="Group 38" transform="translate(-1111.59 3312.511)">
      <g id="Group_36" data-name="Group 36" transform="translate(1381.59 993.489)">
        <path id="Path_81" data-name="Path 81" d="M2266.212,1088.8c-3.639-4.574-16.492,1.372-21.664-3.065-1.468-1.26,4.387-4.591,5.112-5.2,3.379-2.847,2.57-7.6,1.666-11.364-2.8-11.661-8.129-22.388-13.564-33q-3.469-6.773-7.245-13.386c-.395-.689-4.677-6.606-4.4-7.184-10.51,22.114-22.03-4.655-28.955-7.173-9.783-3.556-19.353.909-27.245,6.66-12.709,9.261-23.2,21.207-32.084,34.11-5.128,7.448-9.114,14.631-16.161,20.654a65.075,65.075,0,0,1-25.952,13.6c-4.444,1.122-9.209.581-13.706,1.459-15.421,3.007-28.738,9.141-44.828,10.51-24.284,2.067-48.611,6.088-73.046,5.27a165.035,165.035,0,0,1-29.45-3.424,128.1,128.1,0,0,1-13.953-3.835c-4.265-1.446-9.368-2.927-13.141-5.443a44.123,44.123,0,0,1-17.558-17.8c-2.54-4.677-4.827-9.84-9.352-12.965-5.271-3.641-11.77-4.775-17.683-6.96-4.949-1.829-9.865-3.645-14.941-5.107a151.732,151.732,0,0,0-31.172-5.635c-16.872-1.2-33.832,3.233-50.432-1.08-16.932-4.4-32.741-12.252-49.627-16.808-52.917-14.278-105.872-30.267-160.7-27.9-33.3,1.435-66.916,17.528-99.862,20.874-16.7,1.7-35.552,2.69-45.757,18.388-5.933,9.126-8.237,20.2-8.607,31.081a99.488,99.488,0,0,0,19.109,61.531c13.279,18.156-6.492,61.849-18.8,76.974-13.356,16.414-10.837,42.567,1.578,58.724,2.186,2.844,8.349,17.415,4.756,25.161-5.692,12.272-8.226,24.2-17.36,34.867-3.263,3.811-7.008,7.427-8.76,12.128-4.086,10.974,7.547,17.813,17.019,18.055,10.168.258,19.1-6.356,29.231-6.072-6.369-.179-12.773,23.432-14.595,27.876q-7.191,17.55-13.9,35.289c.618-1.63,10.715-4.117,12.57-4.612.581,9.486-12.488,27.162-21.956,28.515,18.5-2.643,36.065,4.934,54.628-.545,15.775-4.656,29.917-15.26,38.043-29.653,1.852-3.278,3.682-6.984,7.148-8.46,8.55-3.642,17.836,2.308,26.477,2.773,14.585.785,28.9-6.009,42.419-10.815,37.482-13.324,72.058-30.352,112.878-19.767,12.1,3.138,14.428,11.5,21.958,20.367,7.354,8.656,20.653,15.921,32.253,13.524,14.023-2.9,23.757-24.373,31.55-35.2,1.314-1.824,18.694-26.293,20.785-23.944,1.953,2.2,6.413,10.891,9.544,10.6a7.569,7.569,0,0,0,3.182-1.395,70.706,70.706,0,0,1,24.746-9.6c18.639-3.407,13.81-20.212,19.042-34.315,9.4-25.338,43.987-31.577,67.065-37.054,33.819-8.025,71.766-12.384,106.128-5.316,14.561,2.987,26.651,12.212,38.042,21.246,9.829,7.8,20.768,14.579,30.651,22.487a98.619,98.619,0,0,1,17.257,17.444c2.667,3.538,10.526,16.481,15.519,8.932,2.8-4.24,2.28-14.1,8.521-15.3-15.786,3.019-20.708-20.36-9.714-28.516,4.494-3.335,10.613-1.013,15.489.01,3.139.659,6.983,1.478,9.98-.11s4.756-4.819,6.994-7.229a28.307,28.307,0,0,1,7.533-5.377c4.9-2.633,12.957-5.34,15.035-11.062,1.829-5.037-4.9-8-3.449-12.9,1.333-4.5,7.311-3.9,10.756-3.018,2.039.518,19.886,5.244,15.464-1.388-2.642-3.963-8.7-2.5-10.81-7.822-.993-2.507,5.554-7.64,5.321-7.933-4.308-5.45-17.921-6.3-20.627-12.754-3.5-8.363-.525-15.893,5.77-21.98,4.116-3.979,8.951-7.269,12.4-11.835,6.819-9.02,7.192-25.493,18.632-30.421,6.538-2.816,13.833-3.146,20.465-5.938,5.19-2.187,10.117-4.979,15.413-6.919a34.64,34.64,0,0,1,8.345-2.042c1.9-.2,3.829.406,5.741.26,2.927-.224,2.619-2.921,3.01-5.358a14.885,14.885,0,0,1,3.176-7.313c1.846-2.17,4.4-3.605,6.488-5.546,2.667-2.478,3.856-5.531,5.4-8.7a76.677,76.677,0,0,0,4.278-9.545C2271.724,1099,2270.13,1093.724,2266.212,1088.8Z" transform="translate(-1381.59 -993.489)" fill="#ebe6df" stroke="#ebe6df" stroke-miterlimit="10" stroke-width="1"/>
        <path id="Path_82" data-name="Path 82" d="M2191.437,1400.05c.949-12.059,8.93-1.5,10.678-3.262-4.768,4.815,8.165,12.3,4.867,19.043C2196.05,1438.18,2191.5,1399.238,2191.437,1400.05Z" transform="translate(-1478.049 -1041.214)" fill="#ebe6df" stroke="#ebe6df" stroke-miterlimit="10" stroke-width="1"/>
        <path id="Path_83" data-name="Path 83" d="M2252.533,1359.971c8.108-1.208,6.685-18.237-.626-16.221C2251.96,1343.736,2243.841,1361.267,2252.533,1359.971Z" transform="translate(-1484.847 -1035.188)" fill="#ebe6df" stroke="#ebe6df" stroke-miterlimit="10" stroke-width="1"/>
      </g>
      <path id="Path_84" data-name="Path 84" d="M1925.467,1194.163a3.911,3.911,0,0,1-.777-1.143c-.508-.818-1-1.646-1.488-2.475-1.177-1.993-2.332-4-3.484-6.007l1.878-.941a16.8,16.8,0,0,0-.532-1.668c-.18-.526-.635-1.253-.329-1.642.29-.368,1.279-.641,1.705-.854.34-.17,1.5-.983,1.841-.856.618.225.621,1.244,1.028,1.646.313.309.323.205.748-.024.042-.022.6-.355.613-.34l6.952,8.69,10.027,3.476-4.946,8.021-9.226-2.273Z" transform="translate(-64.095 -22.044)" fill="#c4daa9"/>
      <path id="Path_85" data-name="Path 85" d="M2051.465,1271.888a19.815,19.815,0,0,1,1.837-3.614,9.9,9.9,0,0,1,3.74-3.251c.911-.442,1.865-.784,2.79-1.194a6.562,6.562,0,0,0,2.406-1.289c.346-.413.5-.979.809-1.42a3.565,3.565,0,0,1,1.559-.965c1.678-.769,1.469-.21,1.259.769s1.259.769,1.609-.419.139-2.378,1.118-1.4.769,2.447,1.609,2.1,2.517-1.679,3.216-1.889,2.726-1.187,2.588-.211c-.171,1.2-2.736,1.974-3.707,2.238-.918.251-3.152.489-2.967,1.894.03.227.131.473.021.675-.049.09-.135.156-.189.243-.221.354.967,1.01.967,1.524a3.17,3.17,0,0,1-3.355,3.147c-1.439,0-.858,1.961-.832,2.821a5.739,5.739,0,0,1-2.606,5.029,9.748,9.748,0,0,1-4.538,1.088c-1.663.1-3.362.426-5.024.629-.761.093-1.662.21-2.176-.476a7.476,7.476,0,0,1-1.211-2.179,2.964,2.964,0,0,1,.387-2.331C2051.018,1272.913,2051.243,1272.4,2051.465,1271.888Z" transform="translate(-79.645 -31.586)" fill="#c4daa9"/>
      <path id="Path_86" data-name="Path 86" d="M1430.813,1048.438c.543,1.259,1.938,1.895,2.5,3.131,1.222,2.668-.508,5.129,2.082,7.275s7.446,2.428,7.875,6.513a7.28,7.28,0,0,0,.3,2.325c.681,1.484,2.431,2.363,3.23,3.886.866,1.651,1.319,3.5,2.392,5.045a1.664,1.664,0,0,0,1.136.837,1.274,1.274,0,0,0,1.2-1.22,3.855,3.855,0,0,0-.447-1.82,3.442,3.442,0,0,1-.39-1.828c.183-1.175,1.517-2.036,1.387-3.218-.11-1.008-1.195-1.55-2.094-2.018-2.837-1.475-6.609-4.123-6.48-7.758.093-2.584,2.372-4.446,4.1-6.367a18.514,18.514,0,0,0,3.4-5.446c.811-2.01,1.5-2.865,3.606-3.406a2.273,2.273,0,0,0,1.43-.878c.618-1-.826-2.613-1.448-3.291-.922-1-2.622-2.353-4.088-2.273-1.38.075-2.187,1.441-3.442,1.862-1.61.541-3.376.581-4.916,1.341a21.755,21.755,0,0,1-6.69,2.116c-2.024.273-4.164.7-4.741,3.029A3.274,3.274,0,0,0,1430.813,1048.438Z" transform="translate(-5.836 -5.293)" fill="#c4daa9" opacity="0.66"/>
      <path id="Path_87" data-name="Path 87" d="M1913.452,1087.17c-.487.365-3.409,6.941-3.409,6.941l.73.731-.243,1.826q4.7,1.843,9.4,3.689a.332.332,0,0,0,.438-.086l.976-.87a1.655,1.655,0,0,1,.47-.33c.5-.2,1.492.271,1.992.4l3.9-8.279Z" transform="translate(-62.942 -11.158)" fill="#c4daa9"/>
      <path id="Path_88" data-name="Path 88" d="M1889.586,1057.054l1.1-2.557-1.1-.731,1.1-1.7,16.072,4.992-2.679,6.818Z" transform="translate(-60.506 -6.976)" fill="#c4daa9"/>
      <path id="Path_89" data-name="Path 89" d="M1411.759,1254.151a4.713,4.713,0,0,0-.26.944c-.5,3.092,2.13,4.7,2.894,7.353.953,3.312.012,5.658-.879,8.914-.716,2.615-5.578,11.808-1.8,13.87,7.642,4.167,9.114-2.141,12.438-6.435,3.255-4.2,5.528-1.333,9.645-.865,10.151,1.144,2.224-19.023.927-21.965-2.07-4.693-5.835-9.308-11.4-9.25C1419.667,1246.754,1413.24,1250.292,1411.759,1254.151Z" transform="translate(-3.418 -30.161)" fill="#c4daa9" opacity="0.66"/>
      <path id="Path_90" data-name="Path 90" d="M1411.129,1358.759a12.235,12.235,0,0,1-6.317,8.313c-11.674,5.974,1.054,10.476,8.313,8.62,6.879-1.759,17.165-6.765,19.442-14.184.473-1.544.543-3.233,1.334-4.642,2.744-4.885,11.73-.009,13.714-8.168,1.3-5.354-2.774-10.353-7.8-11.628-4.754-1.206-6.07,6.163-9.831,5.468-3.243-.6-1.631-6.306-6.736-5.4C1414.481,1338.69,1412.549,1351.81,1411.129,1358.759Z" transform="translate(-2.203 -40.907)" fill="#c4daa9" opacity="0.66"/>
      <g id="Group_37" data-name="Group 37" transform="translate(1540.66 1079.303)">
        <path id="Path_91" data-name="Path 91" d="M1775.522,1360.145c7.9-7.192,16.976-10.091,26.161-15.2,8.864-4.933,16.9-11.284,26.244-15.362,13.685-5.973,15.632-12.581,15.127-27.205-.634-18.357,17.132-24.75,33.015-23.99,13.289.636,27.6,3.793,39.2-2.729,2.738-1.541,5.451-4.168,5.055-7.285-.328-2.586-2.641-4.374-4.65-6.034q-.388-.321-.771-.649c-13.089-11.257-19.544-28.26-27.044-43.869-7.646-15.912-18.391-32.283-35.3-37.352-10.068-3.018-21.2-1.594-30.948-5.527-14.46-5.835-21.921-21.54-27.748-36s-12.446-30.3-26.367-37.326c-6.122-3.089-13.8-4-19.719-.546-4.227,2.469-7.029,6.8-9.075,11.25-10.972,23.849-4.034,52.807-14.1,77.053-5.261,12.671-14.878,23.252-19.482,36.177-4.18,11.736-4.073,25-10.347,35.768-11.414,19.581-38.765,23.231-54.185,39.841-14.088,15.174-16.186,38.972-31.137,53.294-5.851,5.6-13.224,9.237-19.262,14.6-4.494,3.991-6.242,10.726-11.142,14.241s-11.287,2.37-16.186,6.546c-2.681,2.285-4.971,10.019-3.759,13.4,1.964,5.474,9.276-9.4,14.534-8.067,8.182,2.075,10.362.82,15.457-5.421,6.7-8.208,13.276-14.509,23.53-18.084a133.542,133.542,0,0,1,53.58-7.2c10.676.8,21.787,2.159,31.792,6.2,4.163,1.681,6.447,6.02,8.368,9.805a48.909,48.909,0,0,0,3.338,6.043c2.332,3.329,5.7,5.987,8.748,8.637,6.888,5.988,18.419,10.913,26.888,4.936a41.988,41.988,0,0,0,5.975-5.655,32.678,32.678,0,0,0,5.04-7.585c4.864-9.36,10.631-18.471,18.265-25.834Q1775.065,1360.561,1775.522,1360.145Z" transform="translate(-1558.763 -1098.853)" fill="#d8e7c7"/>
        <path id="Path_92" data-name="Path 92" d="M1562.89,1439.618a2.826,2.826,0,0,0,.469,1.131A8.157,8.157,0,0,1,1562.89,1439.618Z" transform="translate(-1559.255 -1139.44)" fill="#d8e7c7"/>
      </g>
      <path id="Path_93" data-name="Path 93" d="M1431.054,1289.374c4.522-5.531,12.9-10.627,15.155-18.16,2.663-8.878-3.553-18.754,1.6-27.26,1.992-3.288,5.371-5.444,8.632-7.481l20.568-12.855c5.118-3.2,10.489-6.484,16.5-7,9.018-.775,17.549,4.822,26.6,4.694,5.351-.076,11.6-1.882,15.43,1.858,3.146,3.072,2.667,8.258,1.257,12.422a40.2,40.2,0,0,1-26.272,25.231c-4.636,1.365-9.91,2.1-13.028,5.8-2.538,3.006-2.954,7.257-2.745,11.186.361,6.772,2.231,13.391,2.677,20.159s-.8,14.132-5.629,18.9c-2.6,2.568-6.011,4.16-8.76,6.567a19,19,0,0,0-6.037,11.264c-.634,3.917,2.023,9.4.594,12.912-3.316,8.152-17.582,4.863-24.417,4.141a6.755,6.755,0,0,1-3.848-1.266c-1.816-1.6-1.456-4.642-.061-6.618s3.537-3.269,5.321-4.9c5-4.581,6.866-12.795,3.079-18.425-3.47-5.158-10.146-6.8-16.083-8.634s-12.475-5.15-13.721-11.245C1426.929,1296.057,1428.5,1292.5,1431.054,1289.374Z" transform="translate(-5.479 -26.567)" fill="#d8e7c7"/>
    </g>
    <text id="Marina_Piccola" data-name="Marina Piccola" transform="translate(530 4567)" fill="#08376c" font-size="28" font-family="PTSans-Regular, PT Sans"><tspan x="163.532" y="29">Marina Piccola</tspan></text>
    <text id="Marina_Grande" data-name="Marina Grande" transform="translate(572 4394)" fill="#08376c" font-size="28" font-family="PTSans-Regular, PT Sans"><tspan x="163.056" y="29">Marina Grande</tspan></text>
    <text id="Piazzetta" transform="translate(950 4503)" fill="#08376c" font-size="28" font-family="PTSans-Regular, PT Sans"><tspan x="0" y="0">Piazzetta</tspan></text>
    <g id="noun_Location_2369433" transform="translate(855.75 4442)">
      <g id="_10-location" data-name="10-location" transform="translate(4)">
        <path id="Path_46" data-name="Path 46" d="M26.125,59a1.844,1.844,0,0,1-1.162-.424C24.1,57.875,4,41.208,4,22.125a22.125,22.125,0,0,1,44.25,0c0,19.083-20.1,35.75-20.963,36.451A1.844,1.844,0,0,1,26.125,59Z" transform="translate(-4)" fill="#c4ab85"/>
        <path id="Path_74" data-name="Path 74" d="M21.063,28.125A11.062,11.062,0,1,1,32.125,17.062,11.062,11.062,0,0,1,21.063,28.125Zm0-18.437a7.375,7.375,0,1,0,7.375,7.375A7.375,7.375,0,0,0,21.063,9.688Z" transform="translate(1.063 5.063)" fill="#fff"/>
      </g>
    </g>
  </g>
</svg>
