<svg xmlns="http://www.w3.org/2000/svg" width="26.673" height="24" viewBox="0 0 26.673 24">
  <g id="menu" transform="translate(-6.5 -10.86)">
    <path id="Path_158" data-name="Path 158" d="M23.574,47.582a1.916,1.916,0,0,0,0-3.832H8.416a1.916,1.916,0,0,0,0,3.832Z" transform="translate(0 -22.806)" fill="#08376c"/>
    <path id="Path_159" data-name="Path 159" d="M33.173,12.776a1.925,1.925,0,0,0-1.916-1.916H8.416a1.916,1.916,0,1,0,0,3.832H31.257a1.938,1.938,0,0,0,1.916-1.916Z" fill="#08376c"/>
    <path id="Path_160" data-name="Path 160" d="M8.416,80.472H18.4a1.916,1.916,0,1,0,0-3.832H8.416a1.916,1.916,0,1,0,0,3.832Z" transform="translate(0 -45.612)" fill="#08376c"/>
  </g>
</svg>
