<svg xmlns="http://www.w3.org/2000/svg" width="74" height="76" viewBox="0 0 74 76">
  <g id="minibar_icon" transform="translate(-1394 -1696)">
    <g id="_015-restaurant-1" data-name="015-restaurant-1" transform="translate(1397 1708)">
      <g id="Group_55" data-name="Group 55" transform="translate(14 -12)">
        <path id="Path_169" data-name="Path 169" d="M38.438,27.5A1.562,1.562,0,0,0,40,25.937V6.25A6.257,6.257,0,0,0,33.75,0H6.25A6.257,6.257,0,0,0,0,6.25v27.5A6.257,6.257,0,0,0,6.25,40h27.5A6.257,6.257,0,0,0,40,33.75a1.563,1.563,0,0,0-3.125,0,3.129,3.129,0,0,1-3.125,3.125H33.2V19.453c0-2.408-1.934-3.457-3.214-4.152-.267-.145-.538-.292-.77-.438V9.206a1.562,1.562,0,0,0-.7-2.956H26.875a1.562,1.562,0,0,0-.781,2.914v5.673c-.243.154-.535.311-.821.465-1.291.694-3.242,1.741-3.242,4.151V36.875H18c.005-.051.008-.1.008-.156A17.682,17.682,0,0,0,17.5,32.9a13.017,13.017,0,0,1-.389-2.662,10.074,10.074,0,0,1,.36-2.328,18.082,18.082,0,0,0,.578-4.39c0-3.214-1.889-5.723-3.516-7.433V15.31a1.561,1.561,0,0,0-.937-2.81H11.25a1.561,1.561,0,0,0-.938,2.81v.85C8.686,17.871,6.8,20.38,6.8,23.594a16.3,16.3,0,0,0,.556,4.174,10.25,10.25,0,0,1,.381,2.545,10.559,10.559,0,0,1-.4,2.645A15.12,15.12,0,0,0,6.8,36.8c0,.026,0,.052,0,.078H6.25A3.129,3.129,0,0,1,3.125,33.75V6.25A3.129,3.129,0,0,1,6.25,3.125h27.5A3.129,3.129,0,0,1,36.875,6.25V25.937A1.562,1.562,0,0,0,38.438,27.5ZM25.156,25.234h1.016a1.563,1.563,0,0,0,0-3.125H25.156V19.453c0-.463.4-.755,1.6-1.4.294-.158.593-.319.883-.5.284.174.576.333.864.489,1.185.643,1.579.936,1.579,1.4V36.875H25.156ZM9.922,36.8a12.154,12.154,0,0,1,.449-3.106,13.405,13.405,0,0,0,.489-3.379,13.089,13.089,0,0,0-.467-3.271,15.436,15.436,0,0,1-.417-2.275h1.119a1.563,1.563,0,1,0,0-3.125H10.31a10.335,10.335,0,0,1,2.149-3.2c1,1.074,2.463,2.941,2.463,5.08a14.981,14.981,0,0,1-.5,3.686,12.953,12.953,0,0,0-.44,3.033,15.563,15.563,0,0,0,.458,3.317,14.743,14.743,0,0,1,.44,3.168c0,.053,0,.1.008.156H9.918C9.919,36.849,9.922,36.823,9.922,36.8Z" fill="#c4ab85"/>
      </g>
    </g>
    <text id="MINIBAR" transform="translate(1394 1767)" fill="#c4ab85" font-size="18" font-family="PTSans-Regular, PT Sans" letter-spacing="0.05em"><tspan x="0" y="0">MINIBAR</tspan></text>
  </g>
</svg>
