<?xml version="1.0" encoding="utf-8"?>
<!-- Generator: Adobe Illustrator 23.0.3, SVG Export Plug-In . SVG Version: 6.00 Build 0)  -->
<svg version="1.1" id="Livello_1" xmlns="http://www.w3.org/2000/svg" xmlns:xlink="http://www.w3.org/1999/xlink" x="0px" y="0px"
	 viewBox="0 0 40 40" style="enable-background:new 0 0 40 40;" xml:space="preserve">
<style type="text/css">
	.st0{fill:#C4AB85;}
	.st1{font-family:'ArialMT';}
	.st2{font-size:9.3695px;}
</style>
<g id="minibar_icon" transform="translate(-1394 -1696)">
	<g id="_015-restaurant-1" transform="translate(1397 1708)">
		<g id="Group_55" transform="translate(14 -12)">
			<path id="Path_169" class="st0" d="M12.7,14.3c0.4,0,0.8-0.4,0.8-0.8c0,0,0,0,0,0V3.3C13.5,1.5,12,0,10.2,0H-4.1
				c-1.8,0-3.3,1.5-3.3,3.3v14.3c0,1.8,1.5,3.3,3.3,3.3h14.3c1.8,0,3.3-1.5,3.3-3.3c0-0.4-0.4-0.8-0.8-0.8c-0.4,0-0.8,0.4-0.8,0.8
				c0,0.9-0.7,1.6-1.6,1.6H9.9v-9.1c0-1.3-1-1.8-1.7-2.2C8.1,7.9,8,7.8,7.9,7.7V4.8c0.4-0.2,0.6-0.7,0.4-1.1
				C8.1,3.4,7.8,3.3,7.5,3.3H6.6c-0.4,0-0.8,0.4-0.8,0.8c0,0.3,0.2,0.6,0.4,0.7v3C6.1,7.8,6,7.9,5.8,8c-0.7,0.4-1.7,0.9-1.7,2.2v9.1
				H2c0,0,0-0.1,0-0.1c0-0.7-0.1-1.3-0.3-2c-0.1-0.5-0.2-0.9-0.2-1.4c0-0.4,0.1-0.8,0.2-1.2C1.9,13.8,2,13,2.1,12.2
				c0-1.7-1-3-1.8-3.9V8c0.4-0.3,0.4-0.8,0.2-1.1C0.2,6.6,0,6.5-0.3,6.5h-1.2c-0.4,0-0.8,0.4-0.8,0.8C-2.3,7.6-2.2,7.8-2,8v0.4
				c-0.8,0.9-1.8,2.2-1.8,3.9c0,0.7,0.1,1.5,0.3,2.2c0.1,0.4,0.2,0.9,0.2,1.3c0,0.5-0.1,0.9-0.2,1.4c-0.2,0.7-0.3,1.3-0.3,2
				c0,0,0,0,0,0h-0.3c-0.9,0-1.6-0.7-1.6-1.6V3.3c0-0.9,0.7-1.6,1.6-1.6h14.3c0.9,0,1.6,0.7,1.6,1.6v10.2
				C11.8,14,12.2,14.3,12.7,14.3C12.7,14.3,12.7,14.3,12.7,14.3z M5.8,13.1h0.5c0.4,0,0.8-0.4,0.8-0.8c0-0.4-0.4-0.8-0.8-0.8H5.8
				v-1.4c0-0.2,0.2-0.4,0.8-0.7C6.7,9.3,6.9,9.2,7,9.1c0.1,0.1,0.3,0.2,0.4,0.3c0.6,0.3,0.8,0.5,0.8,0.7v9.1H5.8V13.1z M-2.2,19.2
				c0-0.5,0.1-1.1,0.2-1.6c0.2-0.6,0.2-1.2,0.3-1.8c0-0.6-0.1-1.1-0.2-1.7c-0.1-0.4-0.2-0.8-0.2-1.2h0.6c0.4,0,0.8-0.3,0.8-0.8
				c0-0.4-0.3-0.8-0.8-0.8c0,0,0,0,0,0H-2c0.3-0.6,0.6-1.2,1.1-1.7c0.5,0.6,1.3,1.5,1.3,2.6c0,0.6-0.1,1.3-0.3,1.9
				c-0.1,0.5-0.2,1-0.2,1.6c0,0.6,0.1,1.2,0.2,1.7c0.1,0.5,0.2,1.1,0.2,1.6c0,0,0,0.1,0,0.1L-2.2,19.2C-2.2,19.2-2.2,19.2-2.2,19.2z
				"/>
		</g>
	</g>
	<text transform="matrix(1 0 0 1 1394.8066 1732.957)" class="st0 st1 st2">MINIBAR</text>
</g>
</svg>
