<svg xmlns="http://www.w3.org/2000/svg" width="72.079" height="68.178" viewBox="0 0 72.079 68.178">
  <g id="panorama" transform="translate(82.17 -455.052)">
    <path id="Path_76" data-name="Path 76" d="M-48.868,485.314" transform="translate(-0.429 -0.389)" fill="#c4ab85" stroke="#c4ab85" stroke-width="1"/>
    <g id="Group_32" data-name="Group 32" transform="translate(-81.671 470.058)">
      <path id="Path_77" data-name="Path 77" d="M-10.6,518.5a4.271,4.271,0,0,0-4.481-4.046,3.222,3.222,0,0,0-.434.04,1.888,1.888,0,0,0-.188-.326c-.148-.247-1.6-3.168-14.735-29.45l-6.3-12.593a3.4,3.4,0,0,0-4.55-1.52,3.409,3.409,0,0,0-1.51,1.52l-6.5,13-11.024,22.048-2.388-4.787-1.757-3.513a2.263,2.263,0,0,0-3.04-1.007,2.257,2.257,0,0,0-1.007,1.007l-10.7,21.387h-1.165a1.325,1.325,0,0,0-1.293,1.362,1.324,1.324,0,0,0,1.293,1.293h47.323a1.331,1.331,0,0,0,1.293-1.362,1.338,1.338,0,0,0-1.293-1.293H-47.779a1.068,1.068,0,0,1-1.066-1.066v-.01a1.1,1.1,0,0,1,1.125-1.046h.059a1.9,1.9,0,0,0,2.112-1.549,2.522,2.522,0,0,1,2.951-1.994,2.48,2.48,0,0,1,1.717,1.224,2,2,0,0,0,2.171.977,1.988,1.988,0,0,1,1.244-.039c1.559.5,1.855-.9,3.346-.6a1.836,1.836,0,0,0,2.171-1.431.42.42,0,0,0,.02-.109,4.135,4.135,0,0,1,4.648-3.553,4.139,4.139,0,0,1,3.069,2.073,2.255,2.255,0,0,0,2.063,1.155,1.885,1.885,0,0,0,.572-.1,3.122,3.122,0,0,1,3.819,1.786,2.046,2.046,0,0,0,2.487,1.184,1.587,1.587,0,0,1,1.954,1.086A1.582,1.582,0,0,1-14.4,520.2a1.588,1.588,0,0,1-.434.059H-26.856a1.331,1.331,0,0,0-1.362,1.293,1.334,1.334,0,0,0,1.293,1.372h12.09a4.241,4.241,0,0,0,4.244-4.234A1.259,1.259,0,0,0-10.6,518.5Zm-29.825-45.191a.735.735,0,0,1,.977-.326.7.7,0,0,1,.326.326l5.882,11.744-4.688,4.787a.307.307,0,0,1-.424.02l-2.832-2.448a2.965,2.965,0,0,0-4.175.306.5.5,0,0,0-.069.079l-1.52,1.875a.321.321,0,0,1-.434.049c0-.01-.01-.01-.01-.02l-.839-.78Zm-26.065,27.466,3.622,7.254L-64.794,510l-2.132-1.836a2.582,2.582,0,0,0-3.2-.138Zm-9.741,19.482,3.879-7.767c1.9.484,2.754-1.026,3.75-2.26l2.122,1.826a2.593,2.593,0,0,0,3.533-.148l.523-.533-4.441,8.882Zm55.456-8.873a5.664,5.664,0,0,0-1.283.178,6.789,6.789,0,0,0-9.356-2.171,6.81,6.81,0,0,0-2.99,4.066,4.665,4.665,0,0,0-2.536.681,4.542,4.542,0,0,0-1.895-.049,5.174,5.174,0,0,0-7.214-1.263,5.176,5.176,0,0,0-1.954,2.655,3.723,3.723,0,0,0-3.494,3.661,3.9,3.9,0,0,0,.158,1.115H-63.9l3.573-7.135,10.856-21.712.266.247a2.965,2.965,0,0,0,4.194-.158c.039-.049.089-.1.128-.148l1.52-1.875a.31.31,0,0,1,.434-.039l2.842,2.448a2.975,2.975,0,0,0,4.056-.178l4.046-4.125,11.912,23.834A4.287,4.287,0,0,0-20.777,511.385Z" transform="translate(81.671 -470.251)" fill="#c4ab85" stroke="#c4ab85" stroke-width="1"/>
    </g>
    <g id="Group_33" data-name="Group 33" transform="translate(-80.551 455.553)">
      <path id="Path_26" data-name="Path 26" d="M-66.186,460.776a1.33,1.33,0,0,0,1.329-1.329h0v-2.527a1.33,1.33,0,0,0-1.292-1.366,1.33,1.33,0,0,0-1.366,1.293v2.6A1.33,1.33,0,0,0-66.186,460.776Z" transform="translate(80.366 -455.553)" fill="#c4ab85" stroke="#c4ab85" stroke-width="1"/>
      <path id="Path_27" data-name="Path 27" d="M-67.515,480.474V483a1.33,1.33,0,0,0,1.293,1.365,1.329,1.329,0,0,0,1.365-1.293c0-.024,0-.048,0-.072v-2.529a1.33,1.33,0,0,0-1.293-1.366,1.33,1.33,0,0,0-1.365,1.293Z" transform="translate(80.366 -455.86)" fill="#c4ab85" stroke="#c4ab85" stroke-width="1"/>
      <path id="Path_28" data-name="Path 28" d="M-74.573,463.47a1.331,1.331,0,0,0,1.875.135,1.329,1.329,0,0,0,.135-1.875,1.25,1.25,0,0,0-.135-.135l-1.781-1.792a1.33,1.33,0,0,0-1.875-.136,1.33,1.33,0,0,0-.135,1.875,1.361,1.361,0,0,0,.135.136Z" transform="translate(80.488 -455.602)" fill="#c4ab85" stroke="#c4ab85" stroke-width="1"/>
      <path id="Path_29" data-name="Path 29" d="M-57.825,476.46a1.33,1.33,0,0,0-1.875-.136,1.33,1.33,0,0,0-.135,1.875,1.348,1.348,0,0,0,.135.136l1.787,1.787a1.33,1.33,0,0,0,1.875-.136,1.328,1.328,0,0,0,0-1.739Z" transform="translate(80.27 -455.82)" fill="#c4ab85" stroke="#c4ab85" stroke-width="1"/>
      <path id="Path_30" data-name="Path 30" d="M-79.243,471.307h2.528a1.33,1.33,0,0,0,1.293-1.366,1.328,1.328,0,0,0-1.293-1.292h-2.528a1.33,1.33,0,0,0-1.293,1.365A1.331,1.331,0,0,0-79.243,471.307Z" transform="translate(80.536 -455.724)" fill="#c4ab85" stroke="#c4ab85" stroke-width="1"/>
      <path id="Path_31" data-name="Path 31" d="M-57.018,469.978a1.33,1.33,0,0,0,1.329,1.329h2.528a1.33,1.33,0,0,0,1.365-1.293,1.328,1.328,0,0,0-1.292-1.365h-2.6A1.329,1.329,0,0,0-57.018,469.978Z" transform="translate(80.229 -455.724)" fill="#c4ab85" stroke="#c4ab85" stroke-width="1"/>
      <path id="Path_32" data-name="Path 32" d="M-74.569,476.46l-1.787,1.787a1.33,1.33,0,0,0,.135,1.875,1.332,1.332,0,0,0,1.74,0l1.787-1.783a1.329,1.329,0,0,0,.135-1.875,1.33,1.33,0,0,0-1.875-.136,1.467,1.467,0,0,0-.135.136Z" transform="translate(80.486 -455.82)" fill="#c4ab85" stroke="#c4ab85" stroke-width="1"/>
      <path id="Path_33" data-name="Path 33" d="M-57.825,463.47l1.787-1.787a1.329,1.329,0,0,0,.135-1.875,1.33,1.33,0,0,0-1.875-.136,1.468,1.468,0,0,0-.135.136L-59.7,461.6a1.33,1.33,0,0,0-.135,1.875,1.33,1.33,0,0,0,1.875.135,1.346,1.346,0,0,0,.135-.135Z" transform="translate(80.27 -455.602)" fill="#c4ab85" stroke="#c4ab85" stroke-width="1"/>
      <path id="Path_35" data-name="Path 35" d="M-66.273,477.841a7.942,7.942,0,0,0,7.026-4.227,1.329,1.329,0,0,0-.562-1.794,1.329,1.329,0,0,0-1.786.547,5.294,5.294,0,0,1-7.156,2.2,5.292,5.292,0,0,1-2.2-7.155,5.292,5.292,0,0,1,7.155-2.2,5.292,5.292,0,0,1,2.2,2.2,1.33,1.33,0,0,0,1.8.538,1.328,1.328,0,0,0,.547-1.785,7.951,7.951,0,0,0-10.75-3.3,7.952,7.952,0,0,0-3.3,10.751,7.954,7.954,0,0,0,7.025,4.227Z" transform="translate(80.454 -455.636)" fill="#c4ab85" stroke="#c4ab85" stroke-width="1"/>
    </g>
  </g>
</svg>
