<svg xmlns="http://www.w3.org/2000/svg" width="45.25" height="60" viewBox="0 0 45.25 60">
  <g id="pin" transform="translate(-3.5 0.5)">
    <g id="_10-location" data-name="10-location" transform="translate(4)">
      <path id="Path_46" data-name="Path 46" d="M26.125,59a1.844,1.844,0,0,1-1.162-.424C24.1,57.875,4,41.208,4,22.125a22.125,22.125,0,0,1,44.25,0c0,19.083-20.1,35.75-20.963,36.451A1.844,1.844,0,0,1,26.125,59Zm0-55.312A18.437,18.437,0,0,0,7.688,22.125C7.688,36.986,21.9,50.906,26.125,54.7c4.222-3.8,18.438-17.829,18.438-32.579A18.437,18.437,0,0,0,26.125,3.687Z" transform="translate(-4)" fill="#c4ab85" stroke="#c4ab85" stroke-width="1"/>
      <path id="Path_47" data-name="Path 47" d="M21.063,28.125A11.062,11.062,0,1,1,32.125,17.062,11.062,11.062,0,0,1,21.063,28.125Zm0-18.437a7.375,7.375,0,1,0,7.375,7.375A7.375,7.375,0,0,0,21.063,9.688Z" transform="translate(1.063 5.062)" fill="#c4ab85" stroke="#c4ab85" stroke-width="1"/>
    </g>
  </g>
</svg>
