<svg xmlns="http://www.w3.org/2000/svg" xmlns:xlink="http://www.w3.org/1999/xlink" width="102" height="77" viewBox="0 0 102 77">
  <defs>
    <clipPath id="clip-path">
      <rect width="102" height="77" fill="none"/>
    </clipPath>
  </defs>
  <g id="sea_icon" clip-path="url(#clip-path)">
    <g id="sea_icon-2" data-name="sea_icon" transform="translate(-1258 -1696)">
      <text id="VISTA_MARE" data-name="VISTA MARE" transform="translate(1309 1768)" fill="#c4ab85" font-size="18" font-family="PTSans-Regular, PT Sans" letter-spacing="0.05em"><tspan x="-50.814" y="0">VISTA MARE</tspan></text>
      <g id="wind" transform="translate(1281 1620)">
        <g id="Group_69" data-name="Group 69" transform="translate(0 76)">
          <g id="Group_68" data-name="Group 68" transform="translate(0 0)">
            <path id="Path_179" data-name="Path 179" d="M.775,194.926c3.365,2.887,7.18,6.158,14.557,6.158s11.193-3.272,14.558-6.158c3.183-2.73,5.931-5.087,11.664-5.087s8.482,2.358,11.664,5.087a2.222,2.222,0,1,0,2.894-3.373c-3.365-2.887-7.18-6.158-14.558-6.158S30.363,188.666,27,191.552c-3.183,2.73-5.931,5.087-11.664,5.087s-8.481-2.358-11.664-5.087a2.222,2.222,0,1,0-2.894,3.373Z" transform="translate(0 -173.239)" fill="#c4ab85"/>
            <path id="Path_180" data-name="Path 180" d="M.775,85.532C4.14,88.419,7.955,91.69,15.333,91.69s11.193-3.272,14.558-6.158c3.183-2.73,5.931-5.087,11.664-5.087S50.037,82.8,53.22,85.532a2.222,2.222,0,0,0,2.893-3.374C52.747,79.272,48.933,76,41.555,76S30.363,79.272,27,82.158c-3.183,2.73-5.931,5.087-11.664,5.087S6.851,84.888,3.669,82.158A2.222,2.222,0,1,0,.775,85.532Z" transform="translate(0 -76)" fill="#c4ab85"/>
            <path id="Path_181" data-name="Path 181" d="M56.114,300.945c-3.365-2.887-7.18-6.158-14.558-6.158S30.363,298.059,27,300.945c-3.183,2.73-5.931,5.087-11.664,5.087s-8.481-2.358-11.664-5.087h0a2.222,2.222,0,1,0-2.893,3.374c3.365,2.887,7.18,6.158,14.557,6.158s11.193-3.272,14.558-6.158c3.183-2.73,5.931-5.087,11.664-5.087s8.482,2.358,11.664,5.087a2.222,2.222,0,1,0,2.894-3.373Z" transform="translate(-0.001 -270.477)" fill="#c4ab85"/>
          </g>
        </g>
      </g>
    </g>
  </g>
</svg>
