<?xml version="1.0" encoding="utf-8"?>
<!-- Generator: Adobe Illustrator 23.0.3, SVG Export Plug-In . SVG Version: 6.00 Build 0)  -->
<svg version="1.1" id="Livello_1" xmlns="http://www.w3.org/2000/svg" xmlns:xlink="http://www.w3.org/1999/xlink" x="0px" y="0px"
	 viewBox="0 0 40 40" style="enable-background:new 0 0 40 40;" xml:space="preserve">
<style type="text/css">
	.st0{fill:#C4AB85;}
	.st1{font-family:'ArialMT';}
	.st2{font-size:7.5px;}
</style>
<text transform="matrix(1 0 0 1 0.6753 36.9971)" class="st0 st1 st2">VISTA MARE</text>
<g id="wind" transform="translate(1281 1620)">
	<g id="Group_69" transform="translate(0 76)">
		<g id="Group_68" transform="translate(0 0)">
			<path id="Path_179" class="st0" d="M-1275.2-1683.8c1.7,1.5,3.7,3.2,7.5,3.2c3.8,0,5.8-1.7,7.5-3.2c1.6-1.4,3-2.6,6-2.6
				s4.4,1.2,6,2.6c0.5,0.4,1.2,0.4,1.6-0.1c0.4-0.5,0.4-1.2-0.1-1.6c-1.7-1.5-3.7-3.2-7.5-3.2s-5.8,1.7-7.5,3.2
				c-1.6,1.4-3,2.6-6,2.6c-3,0-4.4-1.2-6-2.6c-0.5-0.4-1.2-0.4-1.6,0.1C-1275.7-1685-1275.7-1684.3-1275.2-1683.8L-1275.2-1683.8
				L-1275.2-1683.8z"/>
			<path id="Path_180" class="st0" d="M-1275.2-1690.1c1.7,1.5,3.7,3.2,7.5,3.2c3.8,0,5.8-1.7,7.5-3.2c1.6-1.4,3-2.6,6-2.6
				s4.4,1.2,6,2.6c0.5,0.4,1.2,0.4,1.6-0.1c0.4-0.5,0.4-1.2-0.1-1.6l0,0c-1.8-1.5-3.8-3.2-7.6-3.2s-5.8,1.7-7.5,3.2
				c-1.6,1.4-3,2.6-6,2.6c-3,0-4.4-1.2-6-2.6c-0.5-0.4-1.2-0.4-1.6,0.1C-1275.8-1691.2-1275.7-1690.5-1275.2-1690.1L-1275.2-1690.1z
				"/>
			<path id="Path_181" class="st0" d="M-1246.8-1679.3c-1.7-1.5-3.7-3.2-7.5-3.2c-3.8,0-5.8,1.7-7.5,3.2c-1.6,1.4-3,2.6-6,2.6
				c-3,0-4.4-1.2-6-2.6l0,0c-0.5-0.4-1.2-0.4-1.6,0.1c-0.4,0.5-0.3,1.2,0.2,1.6c1.7,1.5,3.7,3.2,7.5,3.2c3.8,0,5.8-1.7,7.5-3.2
				c1.6-1.4,3-2.6,6-2.6s4.4,1.2,6,2.6c0.5,0.4,1.2,0.4,1.6-0.1C-1246.2-1678.2-1246.3-1678.9-1246.8-1679.3L-1246.8-1679.3z"/>
		</g>
	</g>
</g>
</svg>
