<?xml version="1.0" encoding="utf-8"?>
<!-- Generator: Adobe Illustrator 23.0.3, SVG Export Plug-In . SVG Version: 6.00 Build 0)  -->
<svg version="1.1" id="Livello_1" xmlns="http://www.w3.org/2000/svg" xmlns:xlink="http://www.w3.org/1999/xlink" x="0px" y="0px"
	 viewBox="0 0 40 40" style="enable-background:new 0 0 40 40;" xml:space="preserve">
<style type="text/css">
	.st0{fill:#C4AB85;stroke:#C4AB85;}
	.st1{fill:#C4AB85;}
	.st2{font-family:'ArialMT';}
	.st3{font-size:7.177px;}
</style>
<g id="tree_icon" transform="translate(-1266 -1695.5)">
	<path id="tree" class="st0" d="M1291.5,1702.6C1291.5,1702.6,1291.5,1702.6,1291.5,1702.6c0-1.7-1.2-3.1-2.8-3.3
		c-0.2-1.8-1.9-3.1-3.6-2.8c-1.5,0.2-2.7,1.4-2.8,2.8c-1.6,0.2-2.8,1.6-2.8,3.2v0c-1.2,0.7-1.9,1.9-1.9,3.2c0,2.1,1.7,3.7,3.8,3.7
		c0.4,0,0.8,0,1.1-0.2l0,0c0.7,0.7,1.6,1.1,2.6,1.1v1h-1.4c-0.2,0-0.5,0.2-0.5,0.5c0,0.2,0.2,0.5,0.5,0.5h3.7c0.2,0,0.5-0.2,0.5-0.5
		c0-0.2-0.2-0.5-0.5-0.5h-1.4v-1.1c0.8-0.2,1.5-0.6,2-1.3c0.6,0.3,1.2,0.4,1.8,0.4c2.1,0,3.7-1.6,3.8-3.7
		C1293.5,1704.5,1292.7,1703.3,1291.5,1702.6L1291.5,1702.6z M1289.7,1708.7c-0.6,0-1.2-0.2-1.6-0.5c-0.2-0.2-0.5-0.1-0.6,0.1
		c0,0,0,0,0,0c-0.3,0.6-0.8,1-1.4,1.2v-4.8l1.7-1.7c0.2-0.2,0.2-0.5,0-0.7c-0.2-0.2-0.5-0.2-0.6,0l-1.1,1.1v-1.7
		c0-0.2-0.2-0.5-0.5-0.5c-0.2,0-0.5,0.2-0.5,0.5v3.5l-1.1-1.1c-0.2-0.2-0.5-0.2-0.7,0c-0.2,0.2-0.2,0.5,0,0.6l1.7,1.7v3.1
		c-1.6,0-2.8-1.2-2.8-2.8l0,0c0-0.2-0.2-0.5-0.5-0.5c-0.2,0-0.5,0.2-0.5,0.5l0,0c0,0.6,0.2,1.3,0.5,1.8c-0.2,0-0.3,0-0.5,0
		c-1.6,0-2.8-1.2-2.8-2.8c0-1.6,1.3-2.8,2.8-2.8c0.2,0,0.5-0.2,0.5-0.5c0-0.2-0.2-0.5-0.5-0.5l0,0c-0.3,0-0.6,0-0.9,0.1
		c0.2-1.3,1.4-2.2,2.7-2c0.5,0.1,1,0.3,1.3,0.6c0.2,0.2,0.5,0.2,0.7,0c0.2-0.2,0.2-0.5,0-0.6c-0.5-0.5-1.1-0.8-1.8-0.9
		c0.2-1.3,1.4-2.1,2.7-1.9c1.1,0.2,2,1.2,1.9,2.3c0,0.2,0.2,0.5,0.5,0.5l0,0c1.3,0,2.4,1,2.4,2.4c0,0.6-0.2,1.2-0.7,1.6
		c-0.2,0.2-0.2,0.5,0,0.7c0.2,0.2,0.5,0.2,0.6,0c0.4-0.4,0.6-0.8,0.8-1.3c1.2,0.9,1.5,2.7,0.6,3.9
		C1291.4,1708.3,1290.5,1708.7,1289.7,1708.7L1289.7,1708.7z"/>
	<text transform="matrix(1 0 0 1 1274.7002 1725.1953)" class="st1 st2 st3">VISTA </text>
	<text transform="matrix(1 0 0 1 1268.2559 1733.1699)" class="st1 st2 st3">GIARDINO</text>
</g>
</svg>
