<svg xmlns="http://www.w3.org/2000/svg" width="86" height="97.5" viewBox="0 0 86 97.5">
  <g id="tree_icon" transform="translate(-1266 -1695.5)">
    <path id="tree" d="M35.234,15.4c0-.027,0-.055,0-.082a8.206,8.206,0,0,0-7.1-8.13,8.194,8.194,0,0,0-16.262,0,8.2,8.2,0,0,0-7.1,8.13c0,.027,0,.053,0,.08A9.531,9.531,0,0,0,0,23.516a9.5,9.5,0,0,0,9.453,9.375,9.344,9.344,0,0,0,2.74-.408l.005.005a9.312,9.312,0,0,0,6.629,2.746v2.422H15.313a1.172,1.172,0,0,0,0,2.344h9.375a1.172,1.172,0,1,0,0-2.344H21.172V34.94A9.355,9.355,0,0,0,26.1,31.773a9.317,9.317,0,0,0,4.444,1.118,9.348,9.348,0,0,0,4.687-17.5ZM30.547,30.547a6.983,6.983,0,0,1-4.076-1.3,1.172,1.172,0,0,0-1.674.333,7.056,7.056,0,0,1-3.625,2.913V20.486l4.344-4.344a1.172,1.172,0,0,0-1.657-1.657l-2.687,2.687v-4.2a1.172,1.172,0,0,0-2.344,0v8.889l-2.687-2.687a1.172,1.172,0,0,0-1.657,1.657l4.344,4.344v7.718A7.027,7.027,0,0,1,11.8,25.86a1.172,1.172,0,1,0-2.344,0,9.321,9.321,0,0,0,1.193,4.585,7.084,7.084,0,0,1-1.193.1,7.158,7.158,0,0,1-7.109-7.031,7.157,7.157,0,0,1,7.109-7.031,1.172,1.172,0,1,0,0-2.344,9.427,9.427,0,0,0-2.276.277,5.86,5.86,0,0,1,9.934-3.248,1.172,1.172,0,0,0,1.657-1.657,8.142,8.142,0,0,0-4.531-2.3A5.853,5.853,0,0,1,25.859,8.282a1.172,1.172,0,0,0,1.172,1.172,5.859,5.859,0,0,1,4.143,10,1.172,1.172,0,0,0,1.657,1.657,8.167,8.167,0,0,0,1.982-3.194,7,7,0,0,1-4.266,12.628Zm0,0" transform="translate(1289.5 1696)" fill="#c4ab85" stroke="#c4ab85" stroke-width="1"/>
    <text id="VISTA_GIARDINO" data-name="VISTA 
GIARDINO" transform="translate(1309 1768)" fill="#c4ab85" font-size="18" font-family="PTSans-Regular, PT Sans" letter-spacing="0.05em"><tspan x="-26.451" y="0">VISTA </tspan><tspan x="-42.615" y="20">GIARDINO</tspan></text>
  </g>
</svg>
