<?xml version="1.0" encoding="utf-8"?>
<!-- Generator: Adobe Illustrator 23.0.3, SVG Export Plug-In . SVG Version: 6.00 Build 0)  -->
<svg version="1.1" id="Livello_1" xmlns="http://www.w3.org/2000/svg" xmlns:xlink="http://www.w3.org/1999/xlink" x="0px" y="0px"
	 viewBox="0 0 40 40" style="enable-background:new 0 0 40 40;" xml:space="preserve">
<style type="text/css">
	.st0{fill:#C4AB85;}
	.st1{font-family:'ArialMT';}
	.st2{font-size:9.2492px;}
</style>
<g id="tv_icon" transform="translate(-1015 -1696)">
	<g id="_022-tv" transform="translate(1015 1659.939)">
		<g id="Group_57" transform="translate(0 36.061)">
			<g id="Group_56" transform="translate(0 0)">
				<path id="Path_171" class="st0" d="M31,9.3c0.5,0,0.9-0.4,0.9-0.9l0,0V3.7C32,1.7,30.3,0,28.2,0H11.8C9.7,0,8,1.7,8,3.7v9.3
					c0,2.1,1.7,3.7,3.7,3.7h7.3v1.9h-3.3c-0.5,0-0.9,0.4-1,0.9c0,0.5,0.4,0.9,0.9,1c0,0,0,0,0,0h8.4c0.5,0,0.9-0.4,1-0.9
					c0-0.5-0.4-0.9-0.9-1c0,0,0,0,0,0h-3.3v-1.9h7.3c2.1,0,3.7-1.7,3.7-3.7c0-0.5-0.4-0.9-0.9-1c-0.5,0-0.9,0.4-1,0.9c0,0,0,0,0,0
					c0,1-0.8,1.9-1.9,1.9H11.8c-1,0-1.9-0.8-1.9-1.9V3.7c0-1,0.8-1.9,1.9-1.9h16.4c1,0,1.9,0.8,1.9,1.9v4.7
					C30.1,8.9,30.5,9.3,31,9.3z"/>
			</g>
		</g>
	</g>
	<text transform="matrix(1 0 0 1 1029.7175 1732.9971)" class="st0 st1 st2">TV</text>
</g>
</svg>
