<svg xmlns="http://www.w3.org/2000/svg" width="46.558" height="77" viewBox="0 0 46.558 77">
  <g id="tv_icon" transform="translate(-1015 -1696)">
    <g id="_022-tv" data-name="022-tv" transform="translate(1015 1659.939)">
      <g id="Group_57" data-name="Group 57" transform="translate(0 36.061)">
        <g id="Group_56" data-name="Group 56" transform="translate(0 0)">
          <path id="Path_171" data-name="Path 171" d="M44.74,54.248a1.819,1.819,0,0,0,1.819-1.819V43.336a7.283,7.283,0,0,0-7.275-7.275H7.275A7.283,7.283,0,0,0,0,43.336V61.523A7.283,7.283,0,0,0,7.275,68.8H21.46v3.626H15.1a1.819,1.819,0,1,0,0,3.637H31.463a1.819,1.819,0,1,0,0-3.637H25.1V68.8H39.284a7.283,7.283,0,0,0,7.275-7.275,1.819,1.819,0,1,0-3.637,0,3.642,3.642,0,0,1-3.637,3.637H7.275a3.642,3.642,0,0,1-3.637-3.637V43.336A3.641,3.641,0,0,1,7.275,39.7H39.284a3.642,3.642,0,0,1,3.637,3.637v9.093A1.819,1.819,0,0,0,44.74,54.248Z" transform="translate(0 -36.061)" fill="#c4ab85"/>
        </g>
      </g>
    </g>
    <text id="TV" transform="translate(1028 1768)" fill="#c4ab85" font-size="18" font-family="PTSans-Regular, PT Sans" letter-spacing="0.05em"><tspan x="0" y="0">TV</tspan></text>
  </g>
</svg>
