<?xml version="1.0" encoding="utf-8"?>
<!-- Generator: Adobe Illustrator 23.0.3, SVG Export Plug-In . SVG Version: 6.00 Build 0)  -->
<svg version="1.1" id="Livello_1" xmlns="http://www.w3.org/2000/svg" xmlns:xlink="http://www.w3.org/1999/xlink" x="0px" y="0px"
	 viewBox="0 0 40 40" style="enable-background:new 0 0 40 40;" xml:space="preserve">
<style type="text/css">
	.st0{fill:#C4AB85;stroke:#FFFFFF;}
	.st1{fill:#C4AB85;stroke:#FFFFFF;stroke-width:3;}
	.st2{fill:#C4AB85;}
	.st3{font-family:'ArialMT';}
	.st4{font-size:9.2493px;}
</style>
<g id="wifi_icon" transform="translate(-1142.5 -1694.5)">
	<g id="_006-internet" transform="translate(1022 1695.94)">
		<g id="Group_59" transform="translate(122 0.06)">
			<g id="Group_58">
				<circle id="Ellipse_6" class="st0" cx="18.6" cy="17" r="2.1"/>
				<path id="Path_172" class="st1" d="M8.4,6.8c2.7-2.7,6.3-4.2,10.1-4.1h0c3.8,0,7.5,1.5,10.2,4.1c0.8,0.8,2.1,0.8,2.9,0
					c0.8-0.8,0.8-2.1,0-2.9c-7.3-7.1-18.9-7.1-26.2,0C4.6,4.7,4.6,6,5.4,6.8C6.2,7.6,7.5,7.6,8.4,6.8C8.3,6.8,8.3,6.8,8.4,6.8
					L8.4,6.8z"/>
				<path id="Path_173" class="st1" d="M24.6,13.1c1.1,0,2.1-0.9,2.1-2.1c0-0.5-0.2-1.1-0.6-1.5c-4.1-4.1-10.8-4.1-14.9,0
					c0,0,0,0,0,0c-0.8,0.8-0.8,2.1,0,2.9c0.8,0.8,2.1,0.8,2.9,0c0,0,0,0,0,0c2.5-2.5,6.6-2.5,9.1,0C23.5,12.8,24,13.1,24.6,13.1z"/>
			</g>
		</g>
	</g>
	<text transform="matrix(1 0 0 1 1150.8818 1731.4961)" class="st2 st3 st4">WI-FI</text>
</g>
</svg>
